<svg width="48" height="48" viewBox="0 0 48 48" fill="none" xmlns="http://www.w3.org/2000/svg">
<g id="location-marker">
<path id="Vector" fill-rule="evenodd" clip-rule="evenodd" d="M12.1204 9.71993C15.2712 6.56916 19.5446 4.79907 24.0004 4.79907C28.4563 4.79907 32.7297 6.56916 35.8804 9.71993C39.0312 12.8707 40.8013 17.1441 40.8013 21.5999C40.8013 26.0558 39.0312 30.3292 35.8804 33.4799L24.0004 45.3599L12.1204 33.4799C10.5602 31.9199 9.32259 30.0678 8.47821 28.0294C7.63382 25.991 7.19922 23.8063 7.19922 21.5999C7.19922 19.3936 7.63382 17.2088 8.47821 15.1705C9.32259 13.1321 10.5602 11.28 12.1204 9.71993ZM24.0004 26.3999C25.2735 26.3999 26.4944 25.8942 27.3945 24.994C28.2947 24.0939 28.8004 22.873 28.8004 21.5999C28.8004 20.3269 28.2947 19.106 27.3945 18.2058C26.4944 17.3056 25.2735 16.7999 24.0004 16.7999C22.7274 16.7999 21.5065 17.3056 20.6063 18.2058C19.7061 19.106 19.2004 20.3269 19.2004 21.5999C19.2004 22.873 19.7061 24.0939 20.6063 24.994C21.5065 25.8942 22.7274 26.3999 24.0004 26.3999Z" fill="#6B7280"/>
</g>
</svg>
