<svg width="72" height="73" viewBox="0 0 72 73" fill="none" xmlns="http://www.w3.org/2000/svg">
<path d="M36.2422 0.766113C29.1715 0.766113 22.2596 2.86281 16.3806 6.79107C10.5015 10.7193 5.91934 16.3027 3.21351 22.8352C0.507678 29.3676 -0.200292 36.5558 1.17913 43.4906C2.55855 50.4254 5.96341 56.7955 10.9631 61.7952C15.9629 66.7949 22.3329 70.1998 29.2677 71.5792C36.2025 72.9586 43.3907 72.2506 49.9231 69.5448C56.4556 66.839 62.039 62.2568 65.9672 56.3777C69.8955 50.4987 71.9922 43.5868 71.9922 36.5161C71.9922 27.0346 68.2257 17.9415 61.5213 11.237C54.8169 4.53262 45.7237 0.766113 36.2422 0.766113ZM49.2422 39.7661H36.2422C35.3803 39.7661 34.5536 39.4237 33.9441 38.8142C33.3346 38.2047 32.9922 37.3781 32.9922 36.5161V17.0161C32.9922 16.1542 33.3346 15.3275 33.9441 14.718C34.5536 14.1085 35.3803 13.7661 36.2422 13.7661C37.1042 13.7661 37.9308 14.1085 38.5403 14.718C39.1498 15.3275 39.4922 16.1542 39.4922 17.0161V33.2661H49.2422C50.1042 33.2661 50.9308 33.6085 51.5403 34.218C52.1498 34.8275 52.4922 35.6542 52.4922 36.5161C52.4922 37.3781 52.1498 38.2047 51.5403 38.8142C50.9308 39.4237 50.1042 39.7661 49.2422 39.7661Z" fill="black"/>
</svg>
