<svg width="25" height="25" viewBox="0 0 25 25" fill="none" xmlns="http://www.w3.org/2000/svg">
<g id="eye">
<path id="Vector" d="M14.7854 14.2878C15.348 13.7252 15.6641 12.9622 15.6641 12.1665C15.6641 11.3709 15.348 10.6078 14.7854 10.0452C14.2228 9.48257 13.4597 9.1665 12.6641 9.1665C11.8684 9.1665 11.1054 9.48257 10.5427 10.0452C9.98013 10.6078 9.66406 11.3709 9.66406 12.1665C9.66406 12.9622 9.98013 13.7252 10.5427 14.2878C11.1054 14.8504 11.8684 15.1665 12.6641 15.1665C13.4597 15.1665 14.2228 14.8504 14.7854 14.2878Z" stroke="#6B7280" stroke-width="2" stroke-linecap="round" stroke-linejoin="round"/>
<path id="Vector_2" d="M3.12109 12.1665C4.39509 8.1095 8.18609 5.1665 12.6631 5.1665C17.1411 5.1665 20.9311 8.1095 22.2051 12.1665C20.9311 16.2235 17.1411 19.1665 12.6631 19.1665C8.18609 19.1665 4.39509 16.2235 3.12109 12.1665Z" stroke="#6B7280" stroke-width="2" stroke-linecap="round" stroke-linejoin="round"/>
</g>
</svg>
