<svg width="65" height="64" viewBox="0 0 65 64" fill="none" xmlns="http://www.w3.org/2000/svg">
<g id="Frame" clip-path="url(#clip0_1_2943)">
<g id="background_line">
<path id="Vector" d="M55.5107 11.5787C55.9752 12.1111 56.2094 12.8061 56.1619 13.5111C56.1144 14.2161 55.7891 14.8734 55.2573 15.3387L12.5907 52.672C12.329 52.914 12.0214 53.1012 11.6862 53.2223C11.3509 53.3434 10.9948 53.3961 10.6389 53.3773C10.2829 53.3584 9.93433 53.2684 9.61377 53.1125C9.2932 52.9566 9.00714 52.738 8.7725 52.4697C8.53786 52.2014 8.3594 51.8887 8.24767 51.5502C8.13593 51.2117 8.0932 50.8542 8.12199 50.4989C8.15079 50.1437 8.25052 49.7977 8.4153 49.4817C8.58007 49.1656 8.80655 48.8857 9.08134 48.6587L51.748 11.3253C52.2804 10.8608 52.9754 10.6266 53.6804 10.6741C54.3854 10.7216 55.0454 11.0469 55.5107 11.5787ZM55.5107 28.5787C55.9752 29.1111 56.2094 29.8061 56.1619 30.5111C56.1144 31.2161 55.7891 31.8734 55.2573 32.3387L32.02 52.6747C31.7563 52.9053 31.4498 53.0817 31.1179 53.1938C30.786 53.3059 30.4353 53.3516 30.0858 53.3282C29.7363 53.3048 29.3948 53.2128 29.0808 53.0574C28.7669 52.9021 28.4866 52.6864 28.256 52.4227C28.0254 52.159 27.849 51.8524 27.7369 51.5206C27.6247 51.1887 27.5791 50.838 27.6025 50.4885C27.6259 50.139 27.7179 49.7975 27.8732 49.4835C28.0286 49.1695 28.2443 48.8893 28.508 48.6587L51.7453 28.3253C52.0091 28.0945 52.3158 27.9179 52.6478 27.8057C52.9799 27.6935 53.3308 27.6479 53.6805 27.6714C54.0302 27.6949 54.3719 27.7872 54.6859 27.9428C54.9999 28.0985 55.2802 28.3146 55.5107 28.5787ZM51.7453 43.992C52.255 43.5396 52.9185 43.2994 53.5996 43.3209C54.2807 43.3423 54.9278 43.6237 55.408 44.1073C55.8882 44.5909 56.165 45.2399 56.1816 45.9212C56.1982 46.6025 55.9534 47.2643 55.4973 47.7707L55.2573 48.008L49.924 52.6747C49.4136 53.122 48.7518 53.3579 48.0735 53.3343C47.3952 53.3107 46.7514 53.0293 46.2734 52.5475C45.7953 52.0657 45.519 51.4198 45.5006 50.7413C45.4823 50.0628 45.7233 49.4029 46.1747 48.896L46.4147 48.6587L51.7453 43.992ZM36.084 11.5787C36.5489 12.1107 36.7835 12.8055 36.7365 13.5105C36.6896 14.2155 36.3647 14.873 35.8333 15.3387L12.596 35.6747C12.3323 35.9053 12.0258 36.0817 11.6939 36.1938C11.362 36.3059 11.0113 36.3516 10.6618 36.3282C10.3123 36.3048 9.97081 36.2128 9.65685 36.0574C9.34289 35.902 9.06261 35.6864 8.832 35.4227C8.6014 35.159 8.425 34.8524 8.31286 34.5206C8.20073 34.1887 8.15505 33.838 8.17845 33.4885C8.20185 33.139 8.29387 32.7975 8.44924 32.4835C8.60462 32.1695 8.82031 31.8893 9.084 31.6587L32.3213 11.3253C32.8538 10.8608 33.5488 10.6266 34.2538 10.6741C34.9587 10.7216 35.616 11.0469 36.0813 11.5787H36.084ZM15.556 11.3253C16.0664 10.878 16.7282 10.6421 17.4065 10.6657C18.0848 10.6893 18.7286 10.9707 19.2066 11.4525C19.6847 11.9343 19.9611 12.5802 19.9794 13.2587C19.9977 13.9372 19.7567 14.5971 19.3053 15.104L19.068 15.3413L12.596 21.008C12.0881 21.4723 11.4203 21.7223 10.7323 21.7057C10.0443 21.689 9.38938 21.4071 8.90448 20.9187C8.41958 20.4304 8.14225 19.7735 8.13048 19.0854C8.11872 18.3973 8.37342 17.7313 8.84134 17.2267L9.08134 16.9893L15.556 11.3253Z" fill="#FCFCFD"/>
</g>
</g>
<defs>
<clipPath id="clip0_1_2943">
<rect width="64" height="64" fill="white" transform="translate(0.167969)"/>
</clipPath>
</defs>
</svg>
