<svg width="49" height="48" viewBox="0 0 49 48" fill="none" xmlns="http://www.w3.org/2000/svg">
<g id="office-building">
<path id="Vector" fill-rule="evenodd" clip-rule="evenodd" d="M10.2672 9.60005C10.2672 8.32701 10.7729 7.10611 11.6731 6.20594C12.5732 5.30576 13.7941 4.80005 15.0672 4.80005H34.2672C35.5402 4.80005 36.7611 5.30576 37.6613 6.20594C38.5615 7.10611 39.0672 8.32701 39.0672 9.60005V38.4001C39.7037 38.4001 40.3142 38.6529 40.7642 39.103C41.2143 39.5531 41.4672 40.1635 41.4672 40.8C41.4672 41.4366 41.2143 42.047 40.7642 42.4971C40.3142 42.9472 39.7037 43.2001 39.0672 43.2001H31.8672C31.2307 43.2001 30.6202 42.9472 30.1701 42.4971C29.72 42.047 29.4672 41.4366 29.4672 40.8V36C29.4672 35.3635 29.2143 34.7531 28.7642 34.303C28.3142 33.8529 27.7037 33.6 27.0672 33.6H22.2672C21.6307 33.6 21.0202 33.8529 20.5701 34.303C20.12 34.7531 19.8672 35.3635 19.8672 36V40.8C19.8672 41.4366 19.6143 42.047 19.1642 42.4971C18.7142 42.9472 18.1037 43.2001 17.4672 43.2001H10.2672C9.63067 43.2001 9.02022 42.9472 8.57013 42.4971C8.12004 42.047 7.86719 41.4366 7.86719 40.8C7.86719 40.1635 8.12004 39.5531 8.57013 39.103C9.02022 38.6529 9.63067 38.4001 10.2672 38.4001V9.60005ZM17.4672 12H22.2672V16.8H17.4672V12ZM22.2672 21.6H17.4672V26.4H22.2672V21.6ZM27.0672 12H31.8672V16.8H27.0672V12ZM31.8672 21.6H27.0672V26.4H31.8672V21.6Z" fill="#6B7280"/>
</g>
</svg>
