<svg width="35" height="34" viewBox="0 0 35 34" fill="none" xmlns="http://www.w3.org/2000/svg">
<g id="check">
<path id="Vector" fill-rule="evenodd" clip-rule="evenodd" d="M28.6766 8.9856C28.9903 9.29943 29.1666 9.72503 29.1666 10.1688C29.1666 10.6126 28.9903 11.0382 28.6766 11.352L15.2882 24.7404C14.9743 25.0541 14.5488 25.2304 14.105 25.2304C13.6612 25.2304 13.2356 25.0541 12.9218 24.7404L6.2276 18.0462C5.92275 17.7305 5.75406 17.3078 5.75788 16.869C5.76169 16.4302 5.93769 16.0105 6.24798 15.7002C6.55827 15.3899 6.97802 15.2139 7.41682 15.2101C7.85562 15.2063 8.27836 15.3749 8.59399 15.6798L14.105 21.1908L26.3102 8.9856C26.624 8.67186 27.0496 8.49561 27.4934 8.49561C27.9371 8.49561 28.3627 8.67186 28.6766 8.9856Z" fill="#0E9F6E"/>
</g>
</svg>
