<svg width="65" height="64" viewBox="0 0 65 64" fill="none" xmlns="http://www.w3.org/2000/svg">
<g id="Frame" clip-path="url(#clip0_1_2973)">
<g id="virus_line">
<path id="Vector" fill-rule="evenodd" clip-rule="evenodd" d="M27.1654 7.99967C27.1654 7.29243 27.4463 6.61415 27.9464 6.11406C28.4465 5.61396 29.1248 5.33301 29.832 5.33301H35.1654C35.8726 5.33301 36.5509 5.61396 37.051 6.11406C37.5511 6.61415 37.832 7.29243 37.832 7.99967C37.832 8.70692 37.5511 9.3852 37.051 9.88529C36.5509 10.3854 35.8726 10.6663 35.1654 10.6663V16.221C37.5452 16.6205 39.8031 17.5561 41.768 18.957L45.6987 15.029C45.2129 14.5261 44.9442 13.8525 44.9502 13.1533C44.9563 12.4541 45.2368 11.7852 45.7312 11.2908C46.2256 10.7964 46.8944 10.516 47.5936 10.5099C48.2928 10.5038 48.9664 10.7726 49.4694 11.2583L53.24 15.029C53.7258 15.5319 53.9946 16.2056 53.9885 16.9047C53.9824 17.6039 53.702 18.2728 53.2075 18.7672C52.7131 19.2616 52.0443 19.5421 51.3451 19.5481C50.6459 19.5542 49.9723 19.2854 49.4694 18.7997L45.5414 22.7277C46.9427 24.6934 47.8783 26.9522 48.2774 29.333H53.832C53.832 28.6258 54.113 27.9475 54.6131 27.4474C55.1132 26.9473 55.7915 26.6663 56.4987 26.6663C57.2059 26.6663 57.8842 26.9473 58.3843 27.4474C58.8844 27.9475 59.1654 28.6258 59.1654 29.333V34.6663C59.1654 35.3736 58.8844 36.0519 58.3843 36.552C57.8842 37.0521 57.2059 37.333 56.4987 37.333C55.7915 37.333 55.1132 37.0521 54.6131 36.552C54.113 36.0519 53.832 35.3736 53.832 34.6663H48.2774C47.8779 37.0462 46.9423 39.3041 45.5414 41.269L49.4694 45.1997C49.9723 44.7139 50.6459 44.4451 51.3451 44.4512C52.0443 44.4573 52.7131 44.7377 53.2075 45.2322C53.702 45.7266 53.9824 46.3954 53.9885 47.0946C53.9946 47.7938 53.7258 48.4674 53.24 48.9703L49.4694 52.741C48.9664 53.2268 48.2928 53.4955 47.5936 53.4895C46.8944 53.4834 46.2256 53.2029 45.7312 52.7085C45.2368 52.2141 44.9563 51.5453 44.9502 50.8461C44.9442 50.1469 45.2129 49.4733 45.6987 48.9703L41.7707 45.0423C39.805 46.4437 37.5462 47.3793 35.1654 47.7783V53.333C35.8726 53.333 36.5509 53.614 37.051 54.1141C37.5511 54.6141 37.832 55.2924 37.832 55.9997C37.832 56.7069 37.5511 57.3852 37.051 57.8853C36.5509 58.3854 35.8726 58.6663 35.1654 58.6663H29.832C29.1248 58.6663 28.4465 58.3854 27.9464 57.8853C27.4463 57.3852 27.1654 56.7069 27.1654 55.9997C27.1654 55.2924 27.4463 54.6141 27.9464 54.1141C28.4465 53.614 29.1248 53.333 29.832 53.333V47.7783C27.4512 47.3793 25.1924 46.4437 23.2267 45.0423L19.2987 48.9703C19.5534 49.2163 19.7565 49.5106 19.8963 49.8359C20.0361 50.1613 20.1096 50.5112 20.1127 50.8653C20.1158 51.2193 20.0483 51.5705 19.9142 51.8982C19.7801 52.2259 19.5821 52.5237 19.3318 52.7741C19.0814 53.0244 18.7836 53.2224 18.4559 53.3565C18.1282 53.4906 17.777 53.5581 17.423 53.555C17.0689 53.5519 16.719 53.4784 16.3936 53.3386C16.0683 53.1989 15.774 52.9957 15.528 52.741L11.7574 48.9703C11.2716 48.4674 11.0028 47.7938 11.0089 47.0946C11.015 46.3954 11.2954 45.7266 11.7898 45.2322C12.2843 44.7377 12.9531 44.4573 13.6523 44.4512C14.3515 44.4451 15.0251 44.7139 15.528 45.1997L19.456 41.2717C18.0548 39.3059 17.1192 37.0472 16.72 34.6663H11.1654C11.1654 35.3736 10.8844 36.0519 10.3843 36.552C9.88422 37.0521 9.20594 37.333 8.4987 37.333C7.79145 37.333 7.11318 37.0521 6.61308 36.552C6.11298 36.0519 5.83203 35.3736 5.83203 34.6663V29.333C5.83203 28.6258 6.11298 27.9475 6.61308 27.4474C7.11318 26.9473 7.79145 26.6663 8.4987 26.6663C9.20594 26.6663 9.88422 26.9473 10.3843 27.4474C10.8844 27.9475 11.1654 28.6258 11.1654 29.333H16.72C17.1193 26.9522 18.0549 24.6934 19.456 22.7277L15.528 18.7997C15.282 19.0544 14.9878 19.2575 14.6624 19.3973C14.3371 19.537 13.9872 19.6106 13.6331 19.6137C13.279 19.6168 12.9279 19.5493 12.6002 19.4152C12.2724 19.2811 11.9747 19.0831 11.7243 18.8327C11.4739 18.5823 11.2759 18.2846 11.1418 17.9569C11.0078 17.6292 10.9403 17.278 10.9434 16.9239C10.9464 16.5699 11.02 16.2199 11.1598 15.8946C11.2995 15.5693 11.5027 15.275 11.7574 15.029L15.528 11.2583C15.774 11.0036 16.0683 10.8005 16.3936 10.6607C16.719 10.521 17.0689 10.4474 17.423 10.4443C17.777 10.4413 18.1282 10.5087 18.4559 10.6428C18.7836 10.7769 19.0814 10.9749 19.3318 11.2253C19.5821 11.4757 19.7801 11.7734 19.9142 12.1011C20.0483 12.4289 20.1158 12.78 20.1127 13.1341C20.1096 13.4882 20.0361 13.8381 19.8963 14.1634C19.7565 14.4888 19.5534 14.783 19.2987 15.029L23.2267 18.957C25.1925 17.5558 27.4512 16.6202 29.832 16.221V10.6663C29.1248 10.6663 28.4465 10.3854 27.9464 9.88529C27.4463 9.3852 27.1654 8.70692 27.1654 7.99967ZM21.832 31.9997C21.832 34.8286 22.9558 37.5418 24.9562 39.5421C26.9566 41.5425 29.6697 42.6663 32.4987 42.6663C35.3277 42.6663 38.0408 41.5425 40.0412 39.5421C42.0416 37.5418 43.1654 34.8286 43.1654 31.9997C43.1654 29.1707 42.0416 26.4576 40.0412 24.4572C38.0408 22.4568 35.3277 21.333 32.4987 21.333C29.6697 21.333 26.9566 22.4568 24.9562 24.4572C22.9558 26.4576 21.832 29.1707 21.832 31.9997Z" fill="#FCFCFD"/>
</g>
</g>
<defs>
<clipPath id="clip0_1_2973">
<rect width="64" height="64" fill="white" transform="translate(0.5)"/>
</clipPath>
</defs>
</svg>
