<svg width="65" height="64" viewBox="0 0 65 64" fill="none" xmlns="http://www.w3.org/2000/svg">
<g id="Frame" clip-path="url(#clip0_1_2963)">
<g id="plugin_line">
<path id="Vector" fill-rule="evenodd" clip-rule="evenodd" d="M40.8333 53.333C41.513 53.3338 42.1668 53.594 42.661 54.0606C43.1552 54.5272 43.4526 55.1649 43.4925 55.8434C43.5323 56.5219 43.3115 57.19 42.8753 57.7112C42.4391 58.2324 41.8203 58.5674 41.1453 58.6477L40.8333 58.6663H24.8333C24.1537 58.6656 23.4999 58.4053 23.0057 57.9387C22.5115 57.4722 22.214 56.8345 22.1742 56.156C22.1344 55.4774 22.3551 54.8093 22.7914 54.2881C23.2276 53.7669 23.8464 53.4319 24.5213 53.3517L24.8333 53.333H40.8333ZM40.8333 5.33301C41.4865 5.33309 42.1169 5.57289 42.605 6.00692C43.0931 6.44094 43.4049 7.039 43.4813 7.68767L43.5 7.99967V15.9997H48.8333C50.1789 15.9992 51.4748 16.5074 52.4615 17.4223C53.4481 18.3372 54.0524 19.5913 54.1533 20.933L54.1667 21.333V34.6663C54.1668 38.806 52.5625 42.7846 49.6908 45.7663C46.819 48.7479 42.9034 50.5004 38.7667 50.6557L38.1667 50.6663H27.5C23.3603 50.6665 19.3817 49.0622 16.4001 46.1904C13.4184 43.3187 11.6659 39.4031 11.5107 35.2663L11.5 34.6663V21.333C11.4996 19.9875 12.0078 18.6915 12.9227 17.7049C13.8376 16.7183 15.0916 16.1139 16.4333 16.013L16.8333 15.9997H22.1667V7.99967C22.1674 7.32 22.4277 6.66626 22.8943 6.17203C23.3608 5.6778 23.9985 5.38038 24.6771 5.34055C25.3556 5.30072 26.0237 5.52147 26.5449 5.95771C27.0661 6.39395 27.4011 7.01275 27.4813 7.68767L27.5 7.99967V15.9997H38.1667V7.99967C38.1667 7.29243 38.4476 6.61415 38.9477 6.11406C39.4478 5.61396 40.1261 5.33301 40.8333 5.33301ZM48.8333 21.333H16.8333V34.6663C16.8333 37.403 17.8852 40.035 19.7713 42.0178C21.6574 44.0007 24.2334 45.1828 26.9667 45.3197L27.5 45.333H38.1667C40.9033 45.333 43.5353 44.2812 45.5182 42.3951C47.5011 40.509 48.6832 37.9329 48.82 35.1997L48.8333 34.6663V21.333Z" fill="#FCFCFD"/>
</g>
</g>
<defs>
<clipPath id="clip0_1_2963">
<rect width="64" height="64" fill="white" transform="translate(0.832031)"/>
</clipPath>
</defs>
</svg>
