<svg width="49" height="48" viewBox="0 0 49 48" fill="none" xmlns="http://www.w3.org/2000/svg">
<g id="phone">
<path id="Vector" d="M5.13672 7.20005C5.13672 6.56353 5.38958 5.95308 5.83966 5.50299C6.28975 5.05291 6.9002 4.80005 7.53672 4.80005H12.7039C13.272 4.80031 13.8216 5.00208 14.2549 5.36947C14.6882 5.73686 14.9772 6.24605 15.0703 6.80645L16.8463 17.4504C16.9312 17.9574 16.8511 18.4781 16.6178 18.9361C16.3844 19.3941 16.0103 19.7651 15.5503 19.9945L11.8351 21.8496C13.1674 25.1512 15.1515 28.1503 17.669 30.6678C20.1864 33.1853 23.1856 35.1694 26.4871 36.5016L28.3447 32.7865C28.574 32.3269 28.9446 31.9531 29.402 31.7198C29.8595 31.4865 30.3798 31.4061 30.8863 31.4904L41.5303 33.2665C42.0907 33.3596 42.5999 33.6486 42.9673 34.0819C43.3347 34.5152 43.5365 35.0648 43.5367 35.6329V40.8C43.5367 41.4366 43.2839 42.047 42.8338 42.4971C42.3837 42.9472 41.7732 43.2001 41.1367 43.2001H36.3367C19.1047 43.2001 5.13672 29.232 5.13672 12V7.20005Z" fill="#6B7280"/>
</g>
</svg>
