<svg width="65" height="64" viewBox="0 0 65 64" fill="none" xmlns="http://www.w3.org/2000/svg">
<g id="battery_line 1" clip-path="url(#clip0_1_2953)">
<g id="Group">
<path id="Vector" fill-rule="evenodd" clip-rule="evenodd" d="M11.4974 16C10.0829 16 8.72635 16.5619 7.72616 17.5621C6.72597 18.5623 6.16406 19.9188 6.16406 21.3333V42.6667C6.16406 44.0812 6.72597 45.4377 7.72616 46.4379C8.72635 47.4381 10.0829 48 11.4974 48H48.8307C50.2452 48 51.6018 47.4381 52.602 46.4379C53.6022 45.4377 54.1641 44.0812 54.1641 42.6667V40C55.5785 40 56.9351 39.4381 57.9353 38.4379C58.9355 37.4377 59.4974 36.0812 59.4974 34.6667V29.3333C59.4974 27.9188 58.9355 26.5623 57.9353 25.5621C56.9351 24.5619 55.5785 24 54.1641 24V21.3333C54.1641 19.9188 53.6022 18.5623 52.602 17.5621C51.6018 16.5619 50.2452 16 48.8307 16H11.4974ZM11.4974 21.3333H48.8307V42.6667H11.4974V21.3333Z" fill="#FCFCFD"/>
</g>
</g>
<defs>
<clipPath id="clip0_1_2953">
<rect width="64" height="64" fill="white" transform="translate(0.832031)"/>
</clipPath>
</defs>
</svg>
