<svg width="79" height="79" viewBox="0 0 79 79" fill="none" xmlns="http://www.w3.org/2000/svg">
<path d="M39.2422 0.871094C34.1206 0.871093 29.0492 1.87986 24.3175 3.83979C19.5858 5.79972 15.2865 8.67244 11.665 12.2939C8.04354 15.9154 5.17082 20.2147 3.21088 24.9464C1.25095 29.6781 0.242187 34.7495 0.242188 39.8711C0.242187 44.9926 1.25095 50.064 3.21088 54.7957C5.17082 59.5274 8.04354 63.8268 11.665 67.4483C15.2865 71.0697 19.5858 73.9425 24.3175 75.9024C29.0492 77.8623 34.1206 78.8711 39.2422 78.8711C44.3637 78.8711 49.4351 77.8623 54.1668 75.9024C58.8985 73.9425 63.1979 71.0697 66.8194 67.4483C70.4408 63.8268 73.3136 59.5274 75.2735 54.7957C77.2334 50.064 78.2422 44.9926 78.2422 39.8711C78.2422 34.7495 77.2334 29.6781 75.2735 24.9464C73.3136 20.2147 70.4408 15.9154 66.8194 12.2939C63.1979 8.67244 58.8985 5.79972 54.1668 3.83979C49.4351 1.87986 44.3637 0.871093 39.2422 0.871094ZM39.2422 23.6528C39.5278 23.6528 39.8133 23.7848 39.9563 24.0464C41.2579 26.4433 42.6088 28.3706 43.7966 30.0703C45.8474 33.0067 47.4656 35.3251 47.4656 38.1477C47.4656 42.6815 43.7759 46.3711 39.2422 46.3711C34.7084 46.3711 31.0172 42.6815 31.0188 38.1477C31.0188 35.3251 32.6402 33.0067 34.6909 30.0703C35.8788 28.3706 37.2248 26.4433 38.5281 24.0464C38.6711 23.7848 38.9566 23.6528 39.2422 23.6528ZM39.2422 26.084C38.1307 27.9836 37.0217 29.5702 36.0239 31.0002C34.0625 33.8082 32.6438 35.837 32.6438 38.1477C32.6438 41.7877 35.6038 44.7461 39.2422 44.7461C42.8806 44.7461 45.8422 41.7877 45.8406 38.1477C45.8406 35.837 44.4218 33.8082 42.4604 31.0002C41.4627 29.5702 40.3553 27.9836 39.2422 26.084ZM28.813 39.395C29.1264 39.4472 29.392 39.6809 29.47 40.0076C29.5756 40.4447 29.3041 40.8843 28.8669 40.9883C24.3104 42.077 21.3672 43.8702 21.3672 45.5586C21.3672 48.248 28.7089 51.2461 39.2422 51.2461C49.7754 51.2461 57.1172 48.248 57.1172 45.5586C57.1172 43.8702 54.1724 42.0754 49.6143 40.9883C49.1788 40.8827 48.9104 40.4479 49.0144 40.0107C49.1184 39.5752 49.5516 39.3021 49.9919 39.4077C55.5527 40.7353 58.7422 42.9765 58.7422 45.5586C58.7422 50.3085 48.6948 52.8711 39.2422 52.8711C29.7896 52.8711 19.7422 50.3085 19.7422 45.5586C19.7422 42.9765 22.9301 40.737 28.4893 39.4077C28.5998 39.3814 28.7085 39.3776 28.813 39.395ZM30.146 42.2864C30.5782 42.197 31.0136 42.4823 31.1013 42.9243C31.1891 43.3663 30.9069 43.7903 30.4666 43.8796C27.0996 44.554 26.2763 45.3813 26.2422 45.5649C26.3966 46.3856 31.1237 47.9961 39.2422 47.9961C47.3607 47.9961 52.0894 46.3826 52.2454 45.5522C52.2096 45.3784 51.3864 44.554 48.021 43.8796C47.5806 43.7903 47.2937 43.3663 47.3831 42.9243C47.4724 42.4823 47.9061 42.1954 48.3416 42.2864C52.0612 43.0323 53.8672 44.1026 53.8672 45.5586C53.8672 48.7663 44.6746 49.6211 39.2422 49.6211C33.8098 49.6211 24.6172 48.7663 24.6172 45.5586C24.6172 44.1026 26.4247 43.0323 30.146 42.2864Z" fill="black"/>
</svg>
