<svg width="79" height="79" viewBox="0 0 79 79" fill="none" xmlns="http://www.w3.org/2000/svg">
<path fill-rule="evenodd" clip-rule="evenodd" d="M39.2422 0.516113C28.8987 0.516113 18.9789 4.62503 11.665 11.9389C4.3511 19.2529 0.242188 29.1727 0.242188 39.5161C0.242188 49.8596 4.3511 59.7794 11.665 67.0933C18.9789 74.4072 28.8987 78.5161 39.2422 78.5161C49.5856 78.5161 59.5054 74.4072 66.8194 67.0933C74.1333 59.7794 78.2422 49.8596 78.2422 39.5161C78.2422 29.1727 74.1333 19.2529 66.8194 11.9389C59.5054 4.62503 49.5856 0.516113 39.2422 0.516113ZM38.9614 16.1161C42.852 16.0537 46.7614 17.3142 49.975 19.8913C53.0917 22.3984 55.2354 25.9148 56.0363 29.8337C56.8371 33.7525 56.2449 37.8281 54.3617 41.3569L51.613 39.8905C53.1597 37.0043 53.6477 33.6678 52.9923 30.4595C52.337 27.2512 50.5797 24.3734 48.025 22.3249C45.4751 20.2712 42.2869 19.1743 39.0132 19.2245C35.7394 19.2746 32.5864 20.4686 30.1006 22.5995C27.6113 24.7259 25.9442 27.656 25.3881 30.8823C24.832 34.1086 25.4218 37.4278 27.0555 40.2649L24.3504 41.8187C22.3599 38.3495 21.6426 34.2944 22.3221 30.3529C23.0016 26.4114 25.0354 22.8307 28.0726 20.2283C31.1102 17.6274 34.9628 16.1725 38.9614 16.1161ZM39.2859 22.3561V22.3624C41.8811 22.3679 44.3892 23.2995 46.3589 24.9894C48.3269 26.6803 49.6294 29.016 50.0335 31.5789C50.4377 34.1419 49.917 36.7651 48.5647 38.9795L45.9034 37.354C46.8753 35.7717 47.2505 33.8946 46.9617 32.0603C46.6729 30.2261 45.7389 28.5551 44.3278 27.3481C42.9214 26.1373 41.1287 25.4688 39.2729 25.4631C37.4171 25.4573 35.6203 26.1148 34.2065 27.3169C32.7884 28.5136 31.8445 30.1774 31.5447 32.0086C31.245 33.8397 31.6091 35.7177 32.5716 37.304L29.904 38.9202C28.5654 36.6974 28.0608 34.0711 28.4804 31.5105C28.8999 28.95 30.2162 26.622 32.1941 24.9426C34.176 23.2658 36.6898 22.3489 39.2859 22.3561ZM39.2671 28.6024C41.8318 28.6024 43.9471 30.7177 43.9471 33.2824V44.1712H56.4022L56.4147 52.2395C56.424 59.7524 50.1123 66.0112 42.3809 66.0112C34.6464 66.0112 28.3409 59.7431 28.3409 52.1677L28.3783 48.8636C28.3922 47.6279 28.8901 46.4468 29.7651 45.5741C30.6402 44.7014 31.8225 44.2067 33.0583 44.1961H34.5871V33.2824C34.5871 30.7177 36.6994 28.6024 39.2671 28.6024ZM39.2671 31.7224C38.3748 31.7224 37.7071 32.39 37.7071 33.2824V53.5499H34.5871V47.3161H33.0583C32.8512 47.3118 32.6454 47.3496 32.4534 47.4273C32.2613 47.5049 32.0871 47.6208 31.9412 47.7679C31.7953 47.9149 31.6808 48.0901 31.6047 48.2828C31.5286 48.4754 31.4924 48.6815 31.4983 48.8886L31.4609 52.174C31.4609 58.0177 36.3281 62.8974 42.3809 62.8974C48.4337 62.8974 53.3009 58.0115 53.2947 52.252L53.2884 47.2911H40.8334V45.7436H40.8271V33.2824C40.8271 32.39 40.1563 31.7224 39.2671 31.7224Z" fill="black"/>
</svg>
