<svg width="79" height="80" viewBox="0 0 79 80" fill="none" xmlns="http://www.w3.org/2000/svg">
<g id="Water" clip-path="url(#clip0_1_5068)">
<g id="Group">
<path id="Vector" fill-rule="evenodd" clip-rule="evenodd" d="M78.434 39.8727C78.434 61.5186 60.8863 79.0663 39.2404 79.0663C17.5946 79.0663 0.046875 61.5186 0.046875 39.8727C0.046875 18.2269 17.5946 0.679199 39.2404 0.679199C60.8863 0.679199 78.434 18.2269 78.434 39.8727Z" fill="#111928"/>
<path id="Vector_2" fill-rule="evenodd" clip-rule="evenodd" d="M39.2413 66.8184C28.4178 66.8184 19.6445 57.5381 19.6445 46.0911C19.6445 34.6441 31.4026 25.3638 39.2413 12.9272C47.08 25.3638 58.8381 34.6441 58.8381 46.0911C58.8381 57.5381 50.0648 66.8184 39.2413 66.8184Z" fill="#111928"/>
<path id="Vector_3" fill-rule="evenodd" clip-rule="evenodd" d="M58.8381 43.6419C58.8381 55.0889 50.0648 64.3692 39.2413 64.3692C28.4178 64.3692 19.6445 55.0889 19.6445 43.6419C19.6445 32.1949 31.4026 22.9146 39.2413 10.478C47.08 22.9146 58.8381 32.1949 58.8381 43.6419Z" fill="#FFFFFE"/>
</g>
</g>
<defs>
<clipPath id="clip0_1_5068">
<rect width="78.3871" height="78.3871" fill="white" transform="translate(0.046875 0.677246)"/>
</clipPath>
</defs>
</svg>
