<svg width="34" height="34" viewBox="0 0 34 34" fill="none" xmlns="http://www.w3.org/2000/svg">
<g id="x">
<path id="Vector" fill-rule="evenodd" clip-rule="evenodd" d="M7.70874 7.31267C8.02258 6.99893 8.44818 6.82268 8.89194 6.82268C9.33571 6.82268 9.7613 6.99893 10.0751 7.31267L17.2597 14.4972L24.4442 7.31267C24.5986 7.15283 24.7833 7.02534 24.9874 6.93763C25.1916 6.84992 25.4112 6.80375 25.6334 6.80182C25.8557 6.79989 26.076 6.84223 26.2817 6.92638C26.4874 7.01053 26.6742 7.13479 26.8314 7.29193C26.9885 7.44906 27.1128 7.63592 27.1969 7.84159C27.2811 8.04726 27.3234 8.26764 27.3215 8.48985C27.3195 8.71206 27.2734 8.93166 27.1857 9.13584C27.098 9.34002 26.9705 9.52469 26.8106 9.67907L19.6261 16.8636L26.8106 24.0481C27.1155 24.3638 27.2841 24.7865 27.2803 25.2253C27.2765 25.6641 27.1005 26.0839 26.7902 26.3942C26.4799 26.7044 26.0602 26.8805 25.6214 26.8843C25.1826 26.8881 24.7599 26.7194 24.4442 26.4145L17.2597 19.23L10.0751 26.4145C9.7595 26.7194 9.33676 26.8881 8.89796 26.8843C8.45916 26.8805 8.03942 26.7044 7.72913 26.3942C7.41884 26.0839 7.24283 25.6641 7.23902 25.2253C7.23521 24.7865 7.40389 24.3638 7.70874 24.0481L14.8933 16.8636L7.70874 9.67907C7.395 9.36523 7.21875 8.93964 7.21875 8.49587C7.21875 8.05211 7.395 7.62651 7.70874 7.31267Z" fill="#F05252"/>
</g>
</svg>
